<svg xmlns="http://www.w3.org/2000/svg" width="116" height="80" viewBox="0 0 116 80" fill="none">
<path d="M10.2731 21.3472L15.4155 22.6285C15.4891 22.6433 15.5358 22.7169 15.5186 22.7905C15.5063 22.8421 15.467 22.8838 15.4155 22.8936L10.2731 24.1749C10.224 24.1872 10.1872 24.224 10.1749 24.2731L8.89363 29.4155C8.8789 29.4891 8.80526 29.5358 8.73162 29.5186C8.68008 29.5063 8.63835 29.467 8.62853 29.4155L7.34723 24.2731C7.33496 24.224 7.29814 24.1872 7.24904 24.1749L2.10666 22.8936C2.03302 22.8789 1.98638 22.8053 2.00357 22.7316C2.01584 22.6801 2.05511 22.6383 2.10666 22.6285L7.24904 21.3472C7.29814 21.335 7.33496 21.2981 7.34723 21.249L8.62853 16.1067C8.64326 16.033 8.71689 15.9864 8.79053 16.0036C8.84208 16.0158 8.88381 16.0551 8.89363 16.1067L10.1749 21.249C10.1872 21.2981 10.224 21.335 10.2731 21.3472Z" fill="white"/>
<path d="M78.6635 40.54C78.5923 40.5597 78.5531 40.6333 78.5727 40.7045C78.5874 40.756 78.6316 40.7929 78.6856 40.8002C82.4436 41.0801 85.502 43.2303 85.4848 47.2215C85.4529 52.8106 81.339 55.4125 76.0739 55.896C72.5418 56.22 69.1642 55.7831 65.9364 54.5779C65.7842 54.5214 65.6836 54.3791 65.6836 54.2171V49.5902C65.6836 49.4993 65.7572 49.4232 65.848 49.4232C65.8726 49.4232 65.8971 49.4281 65.9192 49.438C68.6659 50.7315 71.5501 51.301 74.5692 51.1439C77.5369 50.9893 79.5324 49.411 79.0121 46.2028C78.6905 44.2539 76.6728 43.6353 74.9546 43.4978C73.4131 43.3776 71.8692 43.3358 70.3252 43.3776C70.2001 43.38 70.0945 43.2818 70.0921 43.1566C70.0921 43.1566 70.0921 43.1517 70.0921 43.1493V38.7605C70.0921 38.6353 70.1951 38.5322 70.3203 38.5322C70.3203 38.5322 70.3252 38.5322 70.3277 38.5322C72.3748 38.5788 75.1583 38.6917 77.3478 37.6043C77.4509 37.5528 77.5442 37.4865 77.6277 37.408C79.5153 35.5474 78.9532 32.2533 76.0248 31.9268C73.0695 31.5979 71.1672 32.2263 68.85 33.6181C68.6782 33.7236 68.4524 33.6745 68.3346 33.5101L65.9217 30.1129C65.8161 29.9656 65.848 29.7594 65.9953 29.6514C65.9953 29.6514 65.9953 29.6514 65.9978 29.6514C69.6944 27.079 74.3532 26.4703 78.7003 27.3637C81.3636 27.9087 84.1667 29.5655 84.5447 32.543C85.0995 36.895 82.6596 39.4797 78.666 40.545L78.6635 40.54Z" fill="white"/>
<path d="M35.1051 38.401C38.3771 38.401 40.2057 38.3863 40.5887 38.3617C40.6942 38.3543 40.7777 38.266 40.7777 38.1604V27.451C40.7777 27.3676 40.8464 27.2988 40.9298 27.2988H46.6638C46.7595 27.2988 46.8356 27.3749 46.8356 27.4682V55.539C46.8356 55.6298 46.762 55.7035 46.6687 55.7035H40.9519C40.8562 55.7035 40.7801 55.6249 40.7801 55.5316V43.5728C40.7801 43.4648 40.6942 43.3765 40.5862 43.3715C40.4291 43.3666 38.6029 43.3666 35.1051 43.3691C31.6073 43.3691 29.7786 43.3691 29.624 43.3765C29.516 43.3789 29.4301 43.4697 29.4301 43.5777V55.5365C29.4325 55.6323 29.3564 55.7084 29.2607 55.7084H23.5439C23.4531 55.7084 23.377 55.6347 23.377 55.5439L23.3672 27.4731C23.3672 27.3798 23.4457 27.3037 23.539 27.3037H29.273C29.3564 27.3037 29.4251 27.3725 29.4251 27.4559V38.1653C29.43 38.2709 29.5135 38.3568 29.6191 38.3617C30.002 38.3887 31.8306 38.401 35.1026 38.401H35.1051Z" fill="white"/>
<path d="M90.5312 27.4144C90.5312 27.3579 90.5779 27.3137 90.6319 27.3137L100.752 27.2794C108.19 27.2548 114.24 32.9446 114.262 39.9893L114.275 42.8023C114.299 49.847 108.288 55.5785 100.85 55.603L90.7301 55.6374C90.6736 55.6374 90.6294 55.5907 90.6294 55.5367L90.5312 27.4168V27.4144ZM96.6481 32.245L96.6162 50.4876C96.6162 50.5932 96.7021 50.6791 96.8077 50.6791L100.308 50.6864C104.525 50.6938 107.949 47.2255 107.954 42.9397L107.961 39.8297C107.969 35.544 104.557 32.0658 100.34 32.0585L96.8396 32.0511C96.734 32.0511 96.6481 32.137 96.6481 32.2426V32.245Z" fill="white"/>
<path d="M57.1789 25.4747L55.9101 25.4946C54.4841 25.517 53.3463 26.6911 53.3687 28.1171L53.3786 28.7454C53.401 30.1713 54.5751 31.3091 56.001 31.2867L57.2699 31.2668C58.6959 31.2444 59.8337 30.0703 59.8113 28.6443L59.8014 28.016C59.779 26.5901 58.6049 25.4523 57.1789 25.4747Z" fill="#24DA61"/>
<path d="M59.4142 33.7676H53.7342C53.6502 33.7676 53.582 33.8357 53.582 33.9198V55.5546C53.582 55.6387 53.6502 55.7068 53.7342 55.7068H59.4142C59.4982 55.7068 59.5663 55.6387 59.5663 55.5546V33.9198C59.5663 33.8357 59.4982 33.7676 59.4142 33.7676Z" fill="white"/>
</svg>
